<svg width="191" height="48" viewBox="0 0 191 48" fill="none" xmlns="http://www.w3.org/2000/svg">
<circle cx="22" cy="24.2499" r="20.5" stroke="#7F5AF0" stroke-width="3"/>
<path d="M30.1317 32.3817C25.9923 36.5211 21.3028 39.2233 17.1264 40.2973C12.9123 41.3809 9.51572 40.7571 7.50431 38.7457C5.49291 36.7343 4.86912 33.3377 5.95274 29.1236C7.02666 24.9472 9.72888 20.2577 13.8683 16.1183C18.0077 11.9789 22.6972 9.27666 26.8736 8.20274C31.0877 7.11912 34.4843 7.7429 36.4957 9.75431C38.5071 11.7657 39.1309 15.1623 38.0473 19.3764C36.9733 23.5528 34.2711 28.2423 30.1317 32.3817Z" stroke="#7F5AF0" stroke-width="3"/>
<path d="M30.1315 16.1182C34.2709 20.2576 36.9731 24.9472 38.0471 29.1235C39.1307 33.3376 38.5069 36.7342 36.4955 38.7456C34.4841 40.7571 31.0875 41.3808 26.8734 40.2972C22.697 39.2233 18.0075 36.5211 13.8681 32.3817C9.72868 28.2423 7.02647 23.5528 5.95255 19.3764C4.86892 15.1623 5.49271 11.7657 7.50412 9.75427C9.51553 7.74286 12.9122 7.11907 17.1262 8.2027C21.3026 9.27662 25.9921 11.9788 30.1315 16.1182Z" stroke="#7F5AF0" stroke-width="3"/>
<path d="M55.6591 33H50.5455L56.3068 15.5455H62.7841L68.5455 33H63.4318L59.6136 20.3523H59.4773L55.6591 33ZM54.7045 26.1136H64.3182V29.6591H54.7045V26.1136ZM74.9993 15.5455V33H70.2947V15.5455H74.9993ZM82.1009 15.5455V33H77.3963V15.5455H82.1009ZM90.8047 33.2386C89.3842 33.2386 88.1683 32.9574 87.157 32.3949C86.1456 31.8267 85.37 31.0369 84.8303 30.0256C84.2905 29.0085 84.0206 27.8295 84.0206 26.4886C84.0206 25.1477 84.2905 23.9716 84.8303 22.9602C85.37 21.9432 86.1456 21.1534 87.157 20.5909C88.1683 20.0227 89.3842 19.7386 90.8047 19.7386C92.2251 19.7386 93.4411 20.0227 94.4524 20.5909C95.4638 21.1534 96.2393 21.9432 96.7791 22.9602C97.3189 23.9716 97.5888 25.1477 97.5888 26.4886C97.5888 27.8295 97.3189 29.0085 96.7791 30.0256C96.2393 31.0369 95.4638 31.8267 94.4524 32.3949C93.4411 32.9574 92.2251 33.2386 90.8047 33.2386ZM90.8388 29.7614C91.2365 29.7614 91.5803 29.6278 91.87 29.3608C92.1598 29.0937 92.3842 28.7131 92.5433 28.2188C92.7024 27.7244 92.782 27.1364 92.782 26.4545C92.782 25.767 92.7024 25.179 92.5433 24.6903C92.3842 24.196 92.1598 23.8153 91.87 23.5483C91.5803 23.2812 91.2365 23.1477 90.8388 23.1477C90.4183 23.1477 90.0575 23.2812 89.7564 23.5483C89.4553 23.8153 89.2251 24.196 89.0661 24.6903C88.907 25.179 88.8274 25.767 88.8274 26.4545C88.8274 27.1364 88.907 27.7244 89.0661 28.2188C89.2251 28.7131 89.4553 29.0937 89.7564 29.3608C90.0575 29.6278 90.4183 29.7614 90.8388 29.7614ZM99.4297 33V15.5455H111.702V19.3636H104.168V22.3636H110.952V26.1818H104.168V33H99.4297ZM116.88 33.2045C116.045 33.2045 115.306 33.0682 114.664 32.7955C114.028 32.517 113.528 32.0966 113.164 31.5341C112.8 30.9716 112.619 30.2557 112.619 29.3864C112.619 28.6705 112.741 28.0597 112.985 27.554C113.229 27.0426 113.57 26.625 114.008 26.3011C114.445 25.9773 114.954 25.7301 115.533 25.5597C116.119 25.3892 116.749 25.2784 117.425 25.2273C118.158 25.1705 118.746 25.1023 119.19 25.0227C119.638 24.9375 119.962 24.821 120.161 24.6733C120.36 24.5199 120.46 24.3182 120.46 24.0682V24.0341C120.46 23.6932 120.329 23.4318 120.067 23.25C119.806 23.0682 119.471 22.9773 119.062 22.9773C118.613 22.9773 118.246 23.0767 117.962 23.2756C117.684 23.4687 117.516 23.767 117.46 24.1705H113.13C113.187 23.375 113.44 22.642 113.888 21.9716C114.343 21.2955 115.005 20.7557 115.874 20.3523C116.744 19.9432 117.829 19.7386 119.13 19.7386C120.067 19.7386 120.908 19.8494 121.653 20.071C122.397 20.2869 123.031 20.5909 123.553 20.983C124.076 21.3693 124.474 21.8239 124.746 22.3466C125.025 22.8636 125.164 23.4261 125.164 24.0341V33H120.766V31.1591H120.664C120.403 31.6477 120.085 32.0426 119.71 32.3438C119.34 32.6449 118.917 32.8636 118.44 33C117.968 33.1364 117.448 33.2045 116.88 33.2045ZM118.414 30.2386C118.772 30.2386 119.107 30.1648 119.42 30.017C119.738 29.8693 119.996 29.6562 120.195 29.3778C120.394 29.0994 120.494 28.7614 120.494 28.3636V27.2727C120.369 27.3239 120.235 27.3722 120.093 27.4176C119.957 27.4631 119.809 27.5057 119.65 27.5455C119.496 27.5852 119.332 27.6222 119.156 27.6562C118.985 27.6903 118.806 27.7216 118.619 27.75C118.255 27.8068 117.957 27.9006 117.724 28.0312C117.496 28.1562 117.326 28.3125 117.212 28.5C117.104 28.6818 117.05 28.8864 117.05 29.1136C117.05 29.4773 117.178 29.7557 117.434 29.9489C117.69 30.142 118.016 30.2386 118.414 30.2386ZM133.719 33.2386C132.298 33.2386 131.082 32.9574 130.071 32.3949C129.06 31.8267 128.284 31.0369 127.744 30.0256C127.205 29.0085 126.935 27.8295 126.935 26.4886C126.935 25.1477 127.205 23.9716 127.744 22.9602C128.284 21.9432 129.06 21.1534 130.071 20.5909C131.082 20.0227 132.298 19.7386 133.719 19.7386C135.003 19.7386 136.114 19.9716 137.051 20.4375C137.994 20.8977 138.724 21.5511 139.241 22.3977C139.759 23.2386 140.02 24.2273 140.026 25.3636H135.662C135.599 24.6761 135.401 24.1534 135.065 23.7955C134.736 23.4318 134.31 23.25 133.787 23.25C133.378 23.25 133.02 23.3693 132.713 23.608C132.406 23.8409 132.168 24.196 131.997 24.6733C131.827 25.1449 131.741 25.7386 131.741 26.4545C131.741 27.1705 131.827 27.767 131.997 28.2443C132.168 28.7159 132.406 29.071 132.713 29.3097C133.02 29.5426 133.378 29.6591 133.787 29.6591C134.134 29.6591 134.44 29.5795 134.707 29.4205C134.974 29.2557 135.19 29.017 135.355 28.7045C135.526 28.3864 135.628 28 135.662 27.5455H140.026C140.009 28.6989 139.744 29.7045 139.233 30.5625C138.722 31.4148 137.997 32.0739 137.06 32.5398C136.128 33.0057 135.014 33.2386 133.719 33.2386ZM149.773 19.9091V23.3182H141.148V19.9091H149.773ZM142.819 16.7727H147.523V28.7898C147.523 28.9716 147.555 29.125 147.617 29.25C147.68 29.3693 147.776 29.4602 147.907 29.5227C148.038 29.5795 148.205 29.608 148.41 29.608C148.552 29.608 148.717 29.5909 148.904 29.5568C149.097 29.5227 149.239 29.4943 149.33 29.4716L150.012 32.7784C149.802 32.8409 149.501 32.9176 149.109 33.0085C148.722 33.0994 148.262 33.1591 147.728 33.1875C146.648 33.2443 145.742 33.1335 145.009 32.8551C144.276 32.571 143.725 32.125 143.356 31.517C142.987 30.9091 142.808 30.1477 142.819 29.233V16.7727ZM160.182 27.2727V19.9091H164.886V33H160.42V30.5114H160.284C160 31.3466 159.503 32 158.793 32.4716C158.082 32.9375 157.239 33.1705 156.261 33.1705C155.347 33.1705 154.545 32.9602 153.858 32.5398C153.176 32.1193 152.645 31.5398 152.264 30.8011C151.889 30.0625 151.699 29.2159 151.693 28.2614V19.9091H156.398V27.2727C156.403 27.9205 156.568 28.429 156.892 28.7983C157.222 29.1676 157.682 29.3523 158.273 29.3523C158.665 29.3523 159.003 29.2699 159.287 29.1051C159.577 28.9347 159.798 28.696 159.952 28.3892C160.111 28.0767 160.188 27.7045 160.182 27.2727ZM167.279 33V19.9091H171.847V22.3977H171.984C172.222 21.4773 172.6 20.804 173.117 20.3778C173.64 19.9517 174.251 19.7386 174.95 19.7386C175.154 19.7386 175.356 19.7557 175.555 19.7898C175.759 19.8182 175.955 19.8608 176.143 19.9176V23.9318C175.91 23.8523 175.623 23.7926 175.282 23.7528C174.941 23.7131 174.648 23.6932 174.404 23.6932C173.944 23.6932 173.529 23.7983 173.16 24.0085C172.796 24.2131 172.509 24.5028 172.299 24.8778C172.089 25.2472 171.984 25.6818 171.984 26.1818V33H167.279ZM183.208 33.2386C181.81 33.2386 180.606 32.9716 179.594 32.4375C178.589 31.8977 177.813 31.125 177.268 30.1193C176.728 29.108 176.458 27.8977 176.458 26.4886C176.458 25.1364 176.731 23.9545 177.276 22.9432C177.822 21.9318 178.592 21.1449 179.586 20.5824C180.58 20.0199 181.754 19.7386 183.106 19.7386C184.094 19.7386 184.989 19.892 185.79 20.1989C186.592 20.5057 187.276 20.9517 187.844 21.5369C188.413 22.1165 188.85 22.821 189.157 23.6506C189.464 24.4801 189.617 25.4148 189.617 26.4545V27.5455H177.924V24.9545H185.288C185.282 24.5795 185.185 24.25 184.998 23.9659C184.816 23.6761 184.569 23.4517 184.256 23.2926C183.95 23.1278 183.6 23.0455 183.208 23.0455C182.827 23.0455 182.478 23.1278 182.16 23.2926C181.842 23.4517 181.586 23.6733 181.393 23.9574C181.205 24.2415 181.106 24.5739 181.094 24.9545V27.75C181.094 28.1705 181.183 28.5455 181.359 28.875C181.535 29.2045 181.788 29.4631 182.117 29.6506C182.447 29.8381 182.844 29.9318 183.31 29.9318C183.634 29.9318 183.93 29.8864 184.197 29.7955C184.469 29.7045 184.702 29.5739 184.896 29.4034C185.089 29.2273 185.231 29.017 185.322 28.7727H189.617C189.469 29.6818 189.12 30.4716 188.569 31.142C188.018 31.8068 187.288 32.3239 186.379 32.6932C185.475 33.0568 184.418 33.2386 183.208 33.2386Z" fill="#222222"/>
</svg>
